inDegrees=yes
name=ik_lifting_orientations
DataType=double
version=3
OpenSimVersion=4.5-2024-01-10-34fd6af
endheader
time	pelvis_tilt	pelvis_list	pelvis_rotation	pelvis_tx	pelvis_ty	pelvis_tz	hip_flexion_r	hip_adduction_r	hip_rotation_r	knee_angle_r	knee_angle_r_beta	ankle_angle_r	subtalar_angle_r	mtp_angle_r	hip_flexion_l	hip_adduction_l	hip_rotation_l	knee_angle_l	knee_angle_l_beta	ankle_angle_l	subtalar_angle_l	mtp_angle_l	lumbar_extension	lumbar_bending	lumbar_rotation	arm_flex_r	arm_add_r	arm_rot_r	elbow_flex_r	pro_sup_r	wrist_flex_r	wrist_dev_r	arm_flex_l	arm_add_l	arm_rot_l	elbow_flex_l	pro_sup_l	wrist_flex_l	wrist_dev_l
2.45	-1.11070492528182	-0.1984587980025941	-40.65101986054101	0	0.9399999998679526	0	45.04893894482214	-10.02712501654371	0	60.08932763311465	1.048756612507462	-5.004935377764658	0	0	45.04893894482214	-10.02712501654371	0	60.08932763311465	1.048756612507462	-5.004935377764658	0	0	-2.407654569162375	3.929030664259573	-11.55854731071721	41.55084878929659	-54.963718530872	-37.90989986559988	74.52615696938639	0.8255433773971621	0	0	0	-12.64131644753699	0	89.18579311231088	0.8255433773971621	0	0
2.46	-1.158033389176067	-0.2642180439094185	-40.63832567542373	0	0.9399999998679526	0	45.04888551659406	-10.02702136964961	0	60.08925137838411	1.048755281611344	-5.004910775898706	0	0	45.04888551659406	-10.02702136964961	0	60.08925137838411	1.048755281611344	-5.004910775898706	0	0	-2.420750317266963	4.077279674578654	-11.80461807283322	44.46201689778371	-55.17898381589293	-35.44178260297372	73.06845476552296	0.8249166860507426	0	0	0	-12.64263347776815	0	89.1864110629395	0.8249166860507426	0	0
2.47	-1.189849961271038	-0.3374713452885212	-40.63537742704911	0	0.9399999998679526	0	45.04883060247814	-10.02691541862354	0	60.08917282218955	1.048753910547101	-5.004885670422586	0	0	45.04883060247814	-10.02691541862354	0	60.08917282218955	1.048753910547101	-5.004885670422586	0	0	-2.446947212694905	4.243801543517454	-12.12199533208912	47.45367099302035	-55.39391166626649	-32.78198487738008	71.22149356866595	0.8242718325453156	0	0	0	-12.64398986677771	0	89.18704692241451	0.8242718325453156	0	0
2.48	-1.214483842705225	-0.3917645397659048	-40.70803531079495	0	0.9399999998679526	0	45.04878858967776	-10.02683449465974	0	60.08911274482458	1.048752861999276	-5.004866512142695	0	0	45.04878858967776	-10.02683449465974	0	60.08911274482458	1.048752861999276	-5.004866512142695	0	0	-2.438349726740604	4.320557263570976	-12.28314271973067	50.22649145104393	-55.43410051483199	-30.20063489931061	69.5835983469176	0.8237784475600398	0	0	0	-12.64502763435554	0	89.1875334259624	0.8237784475600398	0	0
2.49	-1.182318843207601	-0.4306583778482458	-40.56906465739225	0	0.9399999998679526	0	45.04874714356156	-10.02675481695735	0	60.08905347141484	1.048751827483117	-5.004847664931686	0	0	45.04874714356156	-10.02675481695735	0	60.08905347141484	1.048751827483117	-5.004847664931686	0	0	-2.39680846748936	4.323754611116326	-12.62967891750205	52.73382103437647	-55.56243596452679	-27.98509085148578	67.95892642775529	0.8232916079566603	0	0	0	-12.64605177030734	0	89.18801347542014	0.8232916079566603	0	0
2.5	-1.225987867753632	-0.5087322943490845	-40.17553801032143	0	0.9399999998679526	0	45.04870646502	-10.02667681384344	0	60.08899526792654	1.04875081164061	-5.004829232280956	0	0	45.04870646502	-10.02667681384344	0	60.08899526792654	1.04875081164061	-5.004829232280956	0	0	-2.367269098783614	4.438342677538615	-13.27428640731661	55.52703816550034	-55.56851679941844	-25.47688022699928	66.2547345320346	0.8228136062924079	0	0	0	-12.64705756422414	0	89.18848481020594	0.8228136062924079	0	0
2.51	-1.200491623515052	-0.5571228449194484	-39.74650512296441	0	0.9399999998679526	0	45.04866042697127	-10.02658855063494	0	60.08892948638027	1.048749663536041	-5.004808386330224	0	0	45.04866042697127	-10.02658855063494	0	60.08892948638027	1.048749663536041	-5.004808386330224	0	0	-2.284067113341696	4.40911760605985	-13.82472235039939	58.10128187829358	-55.4688707810453	-23.09411000990476	64.64514241000899	0.8222728082187156	0	0	0	-12.64819509671103	0	89.18901806555509	0.8222728082187156	0	0
2.52	-1.204815137813321	-0.6239612479482443	-39.58472347925795	0	0.9399999998679526	0	45.04861508267167	-10.02650203851696	0	60.08886455996527	1.048748530356328	-5.004787985037368	0	0	45.04861508267167	-10.02650203851696	0	60.08886455996527	1.048748530356328	-5.004787985037368	0	0	-2.245915163532349	4.431947884223924	-14.11798629369934	60.44939878415221	-55.47035747944658	-20.96804092198892	62.89760616928766	0.8217396125953674	0	0	0	-12.64931752906757	0	89.18954382448999	0.8217396125953674	0	0
2.53	-1.208594125397701	-0.6800901576525661	-39.42793784730847	0	0.9399999998679526	0	45.04856830176458	-10.02641288595609	0	60.08879763116909	1.04874736222847	-5.004766977456896	0	0	45.04856830176458	-10.02641288595609	0	60.08879763116909	1.04874736222847	-5.004766977456896	0	0	-2.189988231576397	4.436900771077869	-14.39921501478036	62.76188679702211	-55.38720558463477	-18.89083152245305	61.27478318014995	0.8211895791753296	0	0	0	-12.65047522538996	0	89.19008618637886	0.8211895791753296	0	0
2.54	-1.129751321295658	-0.7029002882126276	-39.04249864373325	0	0.9399999998679526	0	45.04851596264029	-10.02631331361582	0	60.08872278283616	1.048746055878621	-5.004743536445281	0	0	45.04851596264029	-10.02631331361582	0	60.08872278283616	1.048746055878621	-5.004743536445281	0	0	-2.154109598290233	4.364598667164084	-14.9174891129407	65.1741802776215	-55.11217523049697	-16.62723370709094	59.57045837314254	0.8205741574822846	0	0	0	-12.65177051619569	0	89.19069302454598	0.8205741574822846	0	0
2.55	-1.054599027235863	-0.7008822005871104	-38.0753161003444	0	0.9399999998679526	0	45.048465861026	-10.02621826136919	0	60.08865110762993	1.04874480491028	-5.004721185005086	0	0	45.048465861026	-10.02621826136919	0	60.08865110762993	1.04874480491028	-5.004721185005086	0	0	-1.96198932325486	4.163412033714834	-15.9512534283451	67.46347603141622	-54.85059672130429	-14.43673308695089	57.64519059013985	0.8199848255433188	0	0	0	-12.65301119258966	0	89.1912741368443	0.8199848255433188	0	0
2.56	-0.9856320761889805	-0.7118041587510321	-37.10647667811093	0	0.9399999998679526	0	45.04842125811338	-10.02613380465662	0	60.08858730635544	1.048743691367973	-5.004701343363097	0	0	45.04842125811338	-10.02613380465662	0	60.08858730635544	1.048743691367973	-5.004701343363097	0	0	-1.830900153368808	4.020281851592388	-16.94262655527345	69.58366985225079	-54.38804566031194	-12.4820733959568	56.01729492339964	0.8194600875272272	0	0	0	-12.65411596171346	0	89.19179155613709	0.8194600875272272	0	0
2.57	-0.9051950024552849	-0.7041719813133535	-36.48176956992346	0	0.9399999998679526	0	45.04837705205385	-10.02605037386346	0	60.08852401577165	1.0487425867389	-5.004681766234438	0	0	45.04837705205385	-10.02605037386346	0	60.08852401577165	1.0487425867389	-5.004681766234438	0	0	-1.68721427762114	3.791238791729877	-17.58060462145555	71.52420828618311	-54.16949343203395	-10.49375625190308	54.15747357669471	0.8189397284767668	0	0	0	-12.65521194815038	0	89.19230465754048	0.8189397284767668	0	0
2.58	-0.8983940111353854	-0.7245021047791164	-35.83399056906507	0	0.9399999998679526	0	45.04832961036382	-10.02596098433149	0	60.08845611563104	1.048741401657884	-5.00466080898563	0	0	45.04832961036382	-10.02596098433149	0	60.08845611563104	1.048741401657884	-5.00466080898563	0	0	-1.515823739078888	3.636683051074836	-18.22110242358523	73.4603384033571	-53.84336287231176	-8.522325679088038	52.3360461451544	0.8183812394995386	0	0	0	-12.65638823856969	0	89.19285535705873	0.8183812394995386	0	0
